# xmcd CD Database Entry
#
# Track frame offsets:
# 150
# 24037
# 41800
# 67365
# 90047
# 117467
# 133202
# 149380
# 167365
# 186320
# 220227
# 251147
#
# Disc length: 3734 seconds
#
# Revision: 1
# Processed by: cddbd v1.4PL0 Copyright (c) Steve Scherf et al.
# Submitted via: tcd 2.0b
#
DISCID=af0e940c
DTITLE=Sessions Jazz Instrummental
DYEAR=1900
DGENRE=
TTITLE0=Up Where GOD Lives
TTITLE1=Capture My Heart
TTITLE2=Love of My Life
TTITLE3=Leap Before You Look
TTITLE4=Venice Wind
TTITLE5=Blackbird
TTITLE6=Mt Olive
TTITLE7=Rainbow Ride
TTITLE8=Beginnings
TTITLE9=Glory Ride
TTITLE10=The River Nile
TTITLE11=Piercing the Darkness
EXTD=
EXTT0=Jay Stocker
EXTT1=Jay Stocker
EXTT2=Jay Stocker
EXTT3=Mr Groove
EXTT4=Mr Groove
EXTT5=Mr Groove
EXTT6=Tony Beaumont
EXTT7=Tony Beaumont
EXTT8=Tony Beaumont
EXTT9=Joshua
EXTT10=Joshua
EXTT11=Joshua
PLAYORDER=
